<svg width="195" height="188" viewBox="0 0 195 188" fill="none" xmlns="http://www.w3.org/2000/svg">
<path d="M15.768 163.16L13.968 169.172H5.256L6.912 163.232L15.768 163.16ZM22.536 181.844L17.496 187.964H0L4.644 171.548H13.392L10.512 181.808L22.536 181.844Z" fill="white"/>
<path d="M50.2051 169.208H26.4811C26.9611 167.576 27.7771 166.196 28.9291 165.068C30.3451 163.7 31.8091 163.016 33.3211 163.016H45.5611C48.6571 163.016 50.2051 164.66 50.2051 167.948C50.2051 168.764 50.2051 169.184 50.2051 169.208ZM49.7011 171.512L49.5571 172.088C49.1731 173.336 48.5131 175.616 47.5771 178.928C46.9771 181.016 46.0531 182.768 44.8051 184.184C42.5491 186.728 39.5251 188 35.7331 188H31.4491C29.1451 188 27.3211 187.568 25.9771 186.704C24.3211 185.672 23.4931 184.076 23.4931 181.916C23.4931 180.764 23.6731 179.54 24.0331 178.244L25.8331 171.584H34.2211L31.7371 180.332C31.6411 180.74 31.5931 181.052 31.5931 181.268C31.5931 181.748 31.8091 182.048 32.2411 182.168H37.4611C38.1091 182 38.5891 181.388 38.9011 180.332L41.4931 171.548L49.7011 171.512Z" fill="white"/>
<path d="M75.6371 163.16L73.9091 169.208H50.5451L54.3971 163.16H75.6371ZM73.4051 171.548L71.4251 178.136H59.8691L57.1691 187.964H47.7011L52.2731 171.548H73.4051Z" fill="white"/>
<path d="M101.582 163.16L99.9259 169.136H75.9499L79.7659 163.16H101.582ZM92.2579 171.548L87.9019 187.964H79.6579L84.1219 171.548H92.2579Z" fill="white"/>
<path d="M127.914 163.16L126.258 169.136H102.282L106.098 163.16H127.914ZM118.59 171.548L114.234 187.964H105.99L110.454 171.548H118.59Z" fill="#FDBF5A"/>
<path d="M150.106 169.208H134.554L139.738 163.16H148.81L150.106 169.208ZM154.138 187.964H145.102L142.654 178.172H137.542L130.306 187.964H119.758L132.646 171.512H150.61L154.138 187.964Z" fill="#FDBF5A"/>
<path d="M184.543 163.196L178.747 169.172L161.323 169.136L159.883 163.268H168.919L169.603 166.076L172.267 163.232L184.543 163.196ZM176.515 171.548L172.159 176.336L174.607 188L165.247 187.964L164.563 184.94L161.863 188H149.659L162.295 174.032L161.791 171.62L176.515 171.548Z" fill="#FDBF5A"/>
<path d="M194.236 163.16L192.58 169.208H183.904L185.632 163.16H194.236ZM192.04 171.548L187.54 187.964H178.792L183.364 171.548H192.04Z" fill="#FDBF5A"/>
<path fill-rule="evenodd" clip-rule="evenodd" d="M97 136C134.555 136 165 105.555 165 68C165 60.1133 163.657 52.5401 161.188 45.4967L74.4967 132.188C81.5401 134.657 89.1133 136 97 136ZM42.0509 108.065L75.416 74.7003L36.8913 36.1756C31.8536 45.6708 29 56.5022 29 68C29 82.9801 33.8439 96.8289 42.0509 108.065ZM65.1756 7.89132L103.7 46.416L137.065 13.0509C125.829 4.84392 111.98 0 97 0C85.5022 0 74.6708 2.85364 65.1756 7.89132Z" fill="#FDBF5A"/>
<path fill-rule="evenodd" clip-rule="evenodd" d="M58.4142 32.4142L49.9999 24L52.8284 21.1716L61.2426 29.5858L58.4142 32.4142Z" fill="#FDBF5A"/>
<path fill-rule="evenodd" clip-rule="evenodd" d="M59.5857 116L67.9999 107.586L70.8284 110.414L62.4142 118.828L59.5857 116Z" fill="#FDBF5A"/>
<path fill-rule="evenodd" clip-rule="evenodd" d="M74.5857 100L82.9999 91.5858L85.8284 94.4142L77.4142 102.828L74.5857 100Z" fill="#FDBF5A"/>
<path fill-rule="evenodd" clip-rule="evenodd" d="M89.5857 84L97.9999 75.5858L100.828 78.4142L92.4142 86.8284L89.5857 84Z" fill="#FDBF5A"/>
<path fill-rule="evenodd" clip-rule="evenodd" d="M119.586 52L128 43.5858L130.828 46.4142L122.414 54.8284L119.586 52Z" fill="#FDBF5A"/>
<path fill-rule="evenodd" clip-rule="evenodd" d="M134.586 36L143 27.5858L145.828 30.4142L137.414 38.8284L134.586 36Z" fill="#FDBF5A"/>
<path fill-rule="evenodd" clip-rule="evenodd" d="M74.0001 47.8285L65.5859 39.4142L68.4143 36.5858L76.8285 45L74.0001 47.8285Z" fill="#FDBF5A"/>
<path fill-rule="evenodd" clip-rule="evenodd" d="M91.0001 64.8285L82.5859 56.4142L85.4143 53.5858L93.8285 62L91.0001 64.8285Z" fill="#FDBF5A"/>
<path fill-rule="evenodd" clip-rule="evenodd" d="M104.586 68L113 59.5858L115.828 62.4142L107.414 70.8284L104.586 68Z" fill="#FDBF5A"/>
</svg>
