<svg width="275" height="61" viewBox="0 0 275 61" fill="none" xmlns="http://www.w3.org/2000/svg">
<path d="M95.768 18.144L93.968 24.156H85.256L86.912 18.216L95.768 18.144ZM102.536 36.828L97.496 42.948H80L84.644 26.532H93.392L90.512 36.792L102.536 36.828Z" fill="white"/>
<path d="M130.205 24.192H106.481C106.961 22.56 107.777 21.18 108.929 20.052C110.345 18.684 111.809 18 113.321 18H125.561C128.657 18 130.205 19.644 130.205 22.932C130.205 23.748 130.205 24.168 130.205 24.192ZM129.701 26.496L129.557 27.072C129.173 28.32 128.513 30.6 127.577 33.912C126.977 36 126.053 37.752 124.805 39.168C122.549 41.712 119.525 42.984 115.733 42.984H111.449C109.145 42.984 107.321 42.552 105.977 41.688C104.321 40.656 103.493 39.06 103.493 36.9C103.493 35.748 103.673 34.524 104.033 33.228L105.833 26.568H114.221L111.737 35.316C111.641 35.724 111.593 36.036 111.593 36.252C111.593 36.732 111.809 37.032 112.241 37.152H117.461C118.109 36.984 118.589 36.372 118.901 35.316L121.493 26.532L129.701 26.496Z" fill="white"/>
<path d="M155.637 18.144L153.909 24.192H130.545L134.397 18.144H155.637ZM153.405 26.532L151.425 33.12H139.869L137.169 42.948H127.701L132.273 26.532H153.405Z" fill="white"/>
<path d="M181.582 18.144L179.926 24.12H155.95L159.766 18.144H181.582ZM172.258 26.532L167.902 42.948H159.658L164.122 26.532H172.258Z" fill="white"/>
<path d="M207.914 18.1439L206.258 24.1199H182.282L186.098 18.1439H207.914ZM198.59 26.5319L194.234 42.9479H185.99L190.454 26.5319H198.59Z" fill="#FDBF5A"/>
<path d="M230.106 24.1919H214.554L219.738 18.1439H228.81L230.106 24.1919ZM234.138 42.9479H225.102L222.654 33.1559H217.542L210.306 42.9479H199.758L212.646 26.4959H230.61L234.138 42.9479Z" fill="#FDBF5A"/>
<path d="M264.543 18.1799L258.747 24.1559L241.323 24.1199L239.883 18.2519H248.919L249.603 21.0599L252.267 18.2159L264.543 18.1799ZM256.515 26.5319L252.159 31.3199L254.607 42.9839L245.247 42.9479L244.563 39.9239L241.863 42.9839H229.659L242.295 29.0159L241.791 26.6039L256.515 26.5319Z" fill="#FDBF5A"/>
<path d="M274.236 18.1439L272.58 24.1919H263.904L265.632 18.1439H274.236ZM272.04 26.5319L267.54 42.9479H258.792L263.364 26.5319H272.04Z" fill="#FDBF5A"/>
<path fill-rule="evenodd" clip-rule="evenodd" d="M30.5 61C47.3447 61 61 47.3447 61 30.5C61 26.9626 60.3978 23.5658 59.2903 20.4066L20.4066 59.2903C23.5658 60.3978 26.9626 61 30.5 61ZM5.85371 48.4705L20.8189 33.5053L3.53949 16.2258C1.27994 20.4847 0 25.3429 0 30.5C0 37.219 2.17264 43.4306 5.85371 48.4705ZM16.2258 3.53949L33.5053 20.8189L48.4705 5.85371C43.4306 2.17264 37.219 0 30.5 0C25.3429 0 20.4847 1.27994 16.2258 3.53949Z" fill="#FDBF5A"/>
<path fill-rule="evenodd" clip-rule="evenodd" d="M13.1931 14.5387L9.41911 10.7647L10.6877 9.49609L14.4618 13.2701L13.1931 14.5387Z" fill="#FDBF5A"/>
<path fill-rule="evenodd" clip-rule="evenodd" d="M13.7186 52.0294L17.4926 48.2554L18.7612 49.524L14.9872 53.2981L13.7186 52.0294Z" fill="#FDBF5A"/>
<path fill-rule="evenodd" clip-rule="evenodd" d="M20.4465 44.8529L24.2205 41.0789L25.4891 42.3475L21.7151 46.1216L20.4465 44.8529Z" fill="#FDBF5A"/>
<path fill-rule="evenodd" clip-rule="evenodd" d="M27.1745 37.6764L30.9485 33.9024L32.2172 35.171L28.4431 38.945L27.1745 37.6764Z" fill="#FDBF5A"/>
<path fill-rule="evenodd" clip-rule="evenodd" d="M40.6303 23.3235L44.4043 19.5495L45.673 20.8181L41.899 24.5921L40.6303 23.3235Z" fill="#FDBF5A"/>
<path fill-rule="evenodd" clip-rule="evenodd" d="M47.3583 16.147L51.1324 12.373L52.401 13.6416L48.627 17.4156L47.3583 16.147Z" fill="#FDBF5A"/>
<path fill-rule="evenodd" clip-rule="evenodd" d="M20.1839 21.4524L16.4098 17.6784L17.6785 16.4098L21.4525 20.1838L20.1839 21.4524Z" fill="#FDBF5A"/>
<path fill-rule="evenodd" clip-rule="evenodd" d="M27.8089 29.0774L24.0348 25.3034L25.3035 24.0348L29.0775 27.8088L27.8089 29.0774Z" fill="#FDBF5A"/>
<path fill-rule="evenodd" clip-rule="evenodd" d="M33.9024 30.5L37.6764 26.726L38.9451 27.9946L35.171 31.7687L33.9024 30.5Z" fill="#FDBF5A"/>
</svg>
